P3
# 4 by 4, black & white checkerboard
4 4 255

# Row 0:
0   0   0
255 255 255
0   0   0
255 255 255

# Row 1:
255 255 255
0   0   0
255 255 255
0   0   0

# Row 2:
0   0   0
255 255 255
0   0   0
255 255 255

# Row 3:
255 255 255
0   0   0
255 255 255
0   0   0
