P3
# 4 by 4, red & gray checkerboard
4 4 255

# Row 0:
64  64 64
255 0  0
64  64 64
255 0  0

# Row 1:
255 0  0
64  64 64
255 0  0
64  64 64

# Row 2:
64  64 64
255 0  0
64  64 64
255 0  0

# Row 3:
255 0  0
64  64 64
255 0  0
64  64 64
